<svg width="15" height="15" viewBox="0 0 15 15" fill="none" xmlns="http://www.w3.org/2000/svg">
<path d="M6.3877 1.22131L7.12481 0.484204C7.43691 0.172095 7.9416 0.172095 8.25039 0.484204L14.7051 6.93557C15.0172 7.24768 15.0172 7.75237 14.7051 8.06116L8.25039 14.5158C7.93828 14.828 7.43359 14.828 7.12481 14.5158L6.3877 13.7787C6.07227 13.4633 6.07891 12.9487 6.40098 12.6399L10.402 8.82815H0.859375C0.417773 8.82815 0.0625 8.47288 0.0625 8.03127V6.96877C0.0625 6.52717 0.417773 6.1719 0.859375 6.1719H10.402L6.40098 2.36018C6.07559 2.05139 6.06895 1.53674 6.3877 1.22131Z" fill="#016170"/>
</svg>
