<svg width="22" height="20" viewBox="0 0 22 20" fill="none" xmlns="http://www.w3.org/2000/svg">
<g clip-path="url(#clip0_1_49)">
<path d="M19.25 20.0005H16.5V15.8338C16.5 15.3918 16.3068 14.9679 15.963 14.6553C15.6192 14.3428 15.1529 14.1672 14.6667 14.1672H7.33333C6.8471 14.1672 6.38079 14.3428 6.03697 14.6553C5.69315 14.9679 5.5 15.3918 5.5 15.8338V20.0005H2.75V15.8338C2.75146 14.7292 3.23481 13.6701 4.09403 12.889C4.95326 12.1079 6.1182 11.6685 7.33333 11.6672H14.6667C15.8818 11.6685 17.0467 12.1079 17.906 12.889C18.7652 13.6701 19.2485 14.7292 19.25 15.8338V20.0005Z" fill="#5C5C5C"/>
<path d="M11 9.99994C9.91221 9.99994 8.84884 9.7067 7.94437 9.15729C7.0399 8.60788 6.33495 7.82699 5.91867 6.91336C5.50238 5.99973 5.39346 4.99439 5.60568 4.02449C5.8179 3.05458 6.34173 2.16367 7.11092 1.46441C7.8801 0.765145 8.86011 0.288941 9.92701 0.0960148C10.9939 -0.0969113 12.0998 0.00210539 13.1048 0.380544C14.1098 0.758982 14.9687 1.39984 15.5731 2.22209C16.1774 3.04434 16.5 4.01103 16.5 4.99994C16.4985 6.32562 15.9186 7.59662 14.8875 8.53401C13.8563 9.47141 12.4582 9.99862 11 9.99994ZM11 2.49994C10.4561 2.49994 9.92442 2.64656 9.47218 2.92127C9.01995 3.19597 8.66747 3.58642 8.45933 4.04323C8.25119 4.50005 8.19673 5.00271 8.30284 5.48767C8.40895 5.97262 8.67086 6.41808 9.05546 6.76771C9.44005 7.11734 9.93006 7.35544 10.4635 7.4519C10.997 7.54837 11.5499 7.49886 12.0524 7.30964C12.5549 7.12042 12.9844 6.79999 13.2865 6.38887C13.5887 5.97774 13.75 5.49439 13.75 4.99994C13.75 4.3369 13.4603 3.70102 12.9445 3.23217C12.4288 2.76333 11.7293 2.49994 11 2.49994Z" fill="#5C5C5C"/>
</g>
<defs>
<clipPath id="clip0_1_49">
<rect width="22" height="20" fill="white"/>
</clipPath>
</defs>
</svg>
