<svg width="22" height="22" viewBox="0 0 22 22" fill="none" xmlns="http://www.w3.org/2000/svg">
<g clip-path="url(#clip0_101_19)">
<path d="M21.9998 10.3087C21.8669 8.16408 21.1093 6.1052 19.8205 4.38587C18.5316 2.66655 16.7678 1.36194 14.7465 0.632867C12.7252 -0.0962059 10.5348 -0.217877 8.44514 0.282852C6.35552 0.783581 4.4581 1.88482 2.98676 3.45083C1.51542 5.01684 0.534481 6.97916 0.164856 9.0959C-0.20477 11.2126 0.0530767 13.3913 0.906612 15.3633C1.76015 17.3352 3.17206 19.0143 4.96831 20.1936C6.76456 21.3729 8.86663 22.0008 11.0154 21.9999H16.9582C18.2948 21.9982 19.5761 21.4665 20.5213 20.5214C21.4664 19.5762 21.9981 18.2948 21.9998 16.9582V10.3949V10.3087ZM19.2498 16.9582C19.2498 17.566 19.0084 18.1489 18.5786 18.5787C18.1488 19.0085 17.5659 19.2499 16.9582 19.2499H11.0154C9.85075 19.2492 8.69932 19.0031 7.63619 18.5275C6.57306 18.0519 5.6221 17.3576 4.84532 16.4898C4.0651 15.6227 3.47931 14.5988 3.12722 13.4867C2.77514 12.3746 2.6649 11.2001 2.8039 10.042C3.02323 8.21615 3.84379 6.51518 5.1363 5.20706C6.42882 3.89894 8.11983 3.05803 9.9429 2.81682C10.2996 2.77231 10.6587 2.74996 11.0182 2.7499C12.9396 2.7444 14.8018 3.41479 16.2789 4.64374C17.14 5.35903 17.8472 6.2414 18.3578 7.23759C18.8684 8.23377 19.1719 9.32311 19.2498 10.4398V16.9582Z" fill="#5C5C5C"/>
<path d="M8.7085 10.0835H11.4585C11.8232 10.0835 12.1729 9.93863 12.4308 9.68077C12.6886 9.42291 12.8335 9.07317 12.8335 8.7085C12.8335 8.34382 12.6886 7.99409 12.4308 7.73622C12.1729 7.47836 11.8232 7.3335 11.4585 7.3335H8.7085C8.34382 7.3335 7.99409 7.47836 7.73622 7.73622C7.47836 7.99409 7.3335 8.34382 7.3335 8.7085C7.3335 9.07317 7.47836 9.42291 7.73622 9.68077C7.99409 9.93863 8.34382 10.0835 8.7085 10.0835Z" fill="#5C5C5C"/>
<path d="M15.1252 11.9165H8.7085C8.34382 11.9165 7.99409 12.0614 7.73622 12.3192C7.47836 12.5771 7.3335 12.9268 7.3335 13.2915C7.3335 13.6562 7.47836 14.0059 7.73622 14.2638C7.99409 14.5216 8.34382 14.6665 8.7085 14.6665H15.1252C15.4898 14.6665 15.8396 14.5216 16.0974 14.2638C16.3553 14.0059 16.5002 13.6562 16.5002 13.2915C16.5002 12.9268 16.3553 12.5771 16.0974 12.3192C15.8396 12.0614 15.4898 11.9165 15.1252 11.9165Z" fill="#5C5C5C"/>
</g>
<defs>
<clipPath id="clip0_101_19">
<rect width="22" height="22" fill="white"/>
</clipPath>
</defs>
</svg>
